# xmcd
#
# Track frame offsets: 
#        150
#        14840
#        38235
#        52489
#        70564
#        83338
#        98972
#        124339
#        142284
#        157386
#
# Disc length: 2362 seconds
#
# Revision: 0
# Processed by: cddbd v1.5.2PL0 Copyright (c) Steve Scherf et al.
# Submitted via: ExactAudioCopy v0.95b4
#
DISCID=9709380a
DTITLE=Travis "Moonchild" Haddix - Daylight at Midnight
DYEAR=2008
DGENRE=Blues
TTITLE0=Word a Lie
TTITLE1=BAckward Baby
TTITLE2=Nine Behind
TTITLE3=Who Could I Be?
TTITLE4=Daylight at Midnight
TTITLE5=Way Back in the Country
TTITLE6=You Kind Of Fool
TTITLE7=What To Do
TTITLE8=Good Buddy Blues
TTITLE9=Blues Leftovers
EXTD=
EXTT0=
EXTT1=
EXTT2=
EXTT3=
EXTT4=
EXTT5=
EXTT6=
EXTT7=
EXTT8=
EXTT9=
PLAYORDER=
